<?xml version="1.0" encoding="utf-8"?>
<svg version="1.1" xmlns:xlink="http://www.w3.org/1999/xlink" width="15px" height="12px" xmlns="http://www.w3.org/2000/svg">
  <g transform="matrix(1 0 0 1 -432 -2113 )">
    <path d="M 439.5 2114  C 443.14 2114  446 2116.2  446 2119  C 446 2121.8  443.14 2124  439.5 2124  C 435.86 2124  433 2121.8  433 2119  C 433 2116.2  435.86 2114  439.5 2114  Z " fill-rule="nonzero" fill="#ffffff" stroke="none" />
    <path d="M 439.5 2114  C 443.14 2114  446 2116.2  446 2119  C 446 2121.8  443.14 2124  439.5 2124  C 435.86 2124  433 2121.8  433 2119  C 433 2116.2  435.86 2114  439.5 2114  Z " stroke-width="2" stroke="#1890ff" fill="none" />
  </g>
</svg>