<?xml version="1.0" encoding="utf-8"?>
<svg version="1.1" xmlns="http://www.w3.org/2000/svg" xmlns:xlink="http://www.w3.org/1999/xlink" viewBox="0 0 667.4 254.8" style="enable-background:new 0 0 667.4 254.8" xml:space="preserve">
<g><path style="fill:#040000" d="M667.4,254.8L537.5,71.3v167H394.1l-78.3-98.5c-0.3,27.3-11.5,53.4-30.9,72.5l-0.1,34.4l-15.4,0l0-22c-16.7,11-36.2,16.9-56.5,16.9c-56.7,0-102.8-46.1-102.8-102.8c0-34.1,16.9-65.2,43.6-84h-51.3l-0.1,191.9l-15.4,0l0.1-191.9H0V39.4h186.9c8.5-2.2,17.3-3.4,26.1-3.4c20.3,0,39.8,5.9,56.5,16.9V0h15.4v65.4c10.4,10.2,18.5,22.4,23.8,35.8l86.7-61.8l138.4,0l118.3,167V34.4h15.4V254.8z M213,51.5c-7.8,0-15.6,1-23.1,3.1c-37.9,10.3-64.3,45-64.3,84.3c0,48.2,39.2,87.4,87.4,87.4c20.8,0,40.7-7.3,56.5-20.7V72.2C253.7,58.8,233.8,51.5,213,51.5z M405.6,222.9h116.5V54.8l-116.5,0V222.9z M315.8,115.1l74.4,93.5V62.1L315.8,115.1z M284.9,137.1v51.4c10-14.5,15.5-31.8,15.5-49.7c0-4.1-0.3-8.2-0.9-12.2L284.9,137.1z M284.9,89.2v29l10.8-7.7C293.1,102.9,289.5,95.7,284.9,89.2z M438.1,172.2c-13.1,0-23.7-10.6-23.7-23.7c0-13.1,10.6-23.7,23.7-23.7s23.7,10.6,23.7,23.7C461.8,161.6,451.2,172.2,438.1,172.2z M438.1,140.2c-4.6,0-8.3,3.7-8.3,8.3c0,4.6,3.7,8.3,8.3,8.3s8.3-3.7,8.3-8.3C446.4,143.9,442.7,140.2,438.1,140.2z"/></g>
</svg>